<?xml version="1.0" encoding="UTF-8"?>
<!DOCTYPE svg PUBLIC "-//W3C//DTD SVG 1.1//EN" "http://www.w3.org/Graphics/SVG/1.1/DTD/svg11.dtd">
<svg width="224mm" height="129mm" viewBox="0 0 22400 12900">
 <path fill="rgb(255,255,255)" stroke="none" d="M 11206,12936 L 0,12936 0,0 22412,0 22412,12936 11206,12936 Z"/>
 <path fill="none" stroke="rgb(179,179,179)" stroke-linejoin="round" d="M 9439,11050 L 1895,11050 1895,2881 16982,2881 16982,11050 9439,11050 Z"/>
 <path fill="none" stroke="rgb(179,179,179)" stroke-linejoin="round" d="M 16982,11049 L 1895,11049"/>
 <path fill="none" stroke="rgb(179,179,179)" stroke-linejoin="round" d="M 16982,10027 L 1895,10027"/>
 <path fill="none" stroke="rgb(179,179,179)" stroke-linejoin="round" d="M 16982,9006 L 1895,9006"/>
 <path fill="none" stroke="rgb(179,179,179)" stroke-linejoin="round" d="M 16982,7985 L 1895,7985"/>
 <path fill="none" stroke="rgb(179,179,179)" stroke-linejoin="round" d="M 16982,6964 L 1895,6964"/>
 <path fill="none" stroke="rgb(179,179,179)" stroke-linejoin="round" d="M 16982,5943 L 1895,5943"/>
 <path fill="none" stroke="rgb(179,179,179)" stroke-linejoin="round" d="M 16982,4922 L 1895,4922"/>
 <path fill="none" stroke="rgb(179,179,179)" stroke-linejoin="round" d="M 16982,3901 L 1895,3901"/>
 <path fill="none" stroke="rgb(179,179,179)" stroke-linejoin="round" d="M 16982,2880 L 1895,2880"/>
 <path fill="none" stroke="rgb(179,179,179)" stroke-linejoin="round" d="M 1895,11199 L 1895,11049"/>
 <path fill="none" stroke="rgb(179,179,179)" stroke-linejoin="round" d="M 1895,11199 L 1895,11049"/>
 <path fill="none" stroke="rgb(179,179,179)" stroke-linejoin="round" d="M 4050,11199 L 4050,11049"/>
 <path fill="none" stroke="rgb(179,179,179)" stroke-linejoin="round" d="M 4050,11199 L 4050,11049"/>
 <path fill="none" stroke="rgb(179,179,179)" stroke-linejoin="round" d="M 6205,11199 L 6205,11049"/>
 <path fill="none" stroke="rgb(179,179,179)" stroke-linejoin="round" d="M 6205,11199 L 6205,11049"/>
 <path fill="none" stroke="rgb(179,179,179)" stroke-linejoin="round" d="M 8361,11199 L 8361,11049"/>
 <path fill="none" stroke="rgb(179,179,179)" stroke-linejoin="round" d="M 8361,11199 L 8361,11049"/>
 <path fill="none" stroke="rgb(179,179,179)" stroke-linejoin="round" d="M 10516,11199 L 10516,11049"/>
 <path fill="none" stroke="rgb(179,179,179)" stroke-linejoin="round" d="M 10516,11199 L 10516,11049"/>
 <path fill="none" stroke="rgb(179,179,179)" stroke-linejoin="round" d="M 12671,11199 L 12671,11049"/>
 <path fill="none" stroke="rgb(179,179,179)" stroke-linejoin="round" d="M 12671,11199 L 12671,11049"/>
 <path fill="none" stroke="rgb(179,179,179)" stroke-linejoin="round" d="M 14826,11199 L 14826,11049"/>
 <path fill="none" stroke="rgb(179,179,179)" stroke-linejoin="round" d="M 14826,11199 L 14826,11049"/>
 <path fill="none" stroke="rgb(179,179,179)" stroke-linejoin="round" d="M 16982,11199 L 16982,11049"/>
 <path fill="none" stroke="rgb(179,179,179)" stroke-linejoin="round" d="M 16982,11199 L 16982,11049"/>
 <path fill="none" stroke="rgb(179,179,179)" stroke-linejoin="round" d="M 1895,11049 L 16982,11049"/>
 <path fill="none" stroke="rgb(179,179,179)" stroke-linejoin="round" d="M 1745,11049 L 1895,11049"/>
 <path fill="none" stroke="rgb(179,179,179)" stroke-linejoin="round" d="M 1745,11049 L 1895,11049"/>
 <path fill="none" stroke="rgb(179,179,179)" stroke-linejoin="round" d="M 1745,10027 L 1895,10027"/>
 <path fill="none" stroke="rgb(179,179,179)" stroke-linejoin="round" d="M 1745,10027 L 1895,10027"/>
 <path fill="none" stroke="rgb(179,179,179)" stroke-linejoin="round" d="M 1745,9006 L 1895,9006"/>
 <path fill="none" stroke="rgb(179,179,179)" stroke-linejoin="round" d="M 1745,9006 L 1895,9006"/>
 <path fill="none" stroke="rgb(179,179,179)" stroke-linejoin="round" d="M 1745,7985 L 1895,7985"/>
 <path fill="none" stroke="rgb(179,179,179)" stroke-linejoin="round" d="M 1745,7985 L 1895,7985"/>
 <path fill="none" stroke="rgb(179,179,179)" stroke-linejoin="round" d="M 1745,6964 L 1895,6964"/>
 <path fill="none" stroke="rgb(179,179,179)" stroke-linejoin="round" d="M 1745,6964 L 1895,6964"/>
 <path fill="none" stroke="rgb(179,179,179)" stroke-linejoin="round" d="M 1745,5943 L 1895,5943"/>
 <path fill="none" stroke="rgb(179,179,179)" stroke-linejoin="round" d="M 1745,5943 L 1895,5943"/>
 <path fill="none" stroke="rgb(179,179,179)" stroke-linejoin="round" d="M 1745,4922 L 1895,4922"/>
 <path fill="none" stroke="rgb(179,179,179)" stroke-linejoin="round" d="M 1745,4922 L 1895,4922"/>
 <path fill="none" stroke="rgb(179,179,179)" stroke-linejoin="round" d="M 1745,3901 L 1895,3901"/>
 <path fill="none" stroke="rgb(179,179,179)" stroke-linejoin="round" d="M 1745,3901 L 1895,3901"/>
 <path fill="none" stroke="rgb(179,179,179)" stroke-linejoin="round" d="M 1745,2880 L 1895,2880"/>
 <path fill="none" stroke="rgb(179,179,179)" stroke-linejoin="round" d="M 1745,2880 L 1895,2880"/>
 <path fill="none" stroke="rgb(179,179,179)" stroke-linejoin="round" d="M 1895,11049 L 1895,2880"/>
 <path fill="none" stroke="rgb(255,66,14)" stroke-width="80" stroke-linejoin="round" d="M 1895,9353 L 4050,9132 6205,9053 8361,9042 10516,9150 12671,9406 14826,9583 16982,9699"/>
 <path fill="rgb(255,66,14)" stroke="rgb(255,66,14)" stroke-linejoin="round" d="M 1770,9228 L 1770,9478 2020,9478 2020,9228 1770,9228 Z"/>
 <path fill="rgb(255,66,14)" stroke="rgb(255,66,14)" stroke-linejoin="round" d="M 3925,9007 L 3925,9257 4175,9257 4175,9007 3925,9007 Z"/>
 <path fill="rgb(255,66,14)" stroke="rgb(255,66,14)" stroke-linejoin="round" d="M 6080,8928 L 6080,9178 6330,9178 6330,8928 6080,8928 Z"/>
 <path fill="rgb(255,66,14)" stroke="rgb(255,66,14)" stroke-linejoin="round" d="M 8236,8917 L 8236,9167 8486,9167 8486,8917 8236,8917 Z"/>
 <path fill="rgb(255,66,14)" stroke="rgb(255,66,14)" stroke-linejoin="round" d="M 10391,9025 L 10391,9275 10641,9275 10641,9025 10391,9025 Z"/>
 <path fill="rgb(255,66,14)" stroke="rgb(255,66,14)" stroke-linejoin="round" d="M 12546,9281 L 12546,9531 12796,9531 12796,9281 12546,9281 Z"/>
 <path fill="rgb(255,66,14)" stroke="rgb(255,66,14)" stroke-linejoin="round" d="M 14701,9458 L 14701,9708 14951,9708 14951,9458 14701,9458 Z"/>
 <path fill="rgb(255,66,14)" stroke="rgb(255,66,14)" stroke-linejoin="round" d="M 16857,9574 L 16857,9824 17107,9824 17107,9574 16857,9574 Z"/>
 <path fill="none" stroke="rgb(255,211,32)" stroke-width="80" stroke-linejoin="round" d="M 1895,9300 L 4050,8974 6205,8900 8361,8959 10516,9029 12671,9108 14826,9290 16982,9508"/>
 <path fill="rgb(255,211,32)" stroke="rgb(255,211,32)" stroke-linejoin="round" d="M 1770,9300 L 1895,9425 2020,9300 1895,9175 1770,9300 Z"/>
 <path fill="rgb(255,211,32)" stroke="rgb(255,211,32)" stroke-linejoin="round" d="M 3925,8974 L 4050,9099 4175,8974 4050,8849 3925,8974 Z"/>
 <path fill="rgb(255,211,32)" stroke="rgb(255,211,32)" stroke-linejoin="round" d="M 6080,8900 L 6205,9025 6330,8900 6205,8775 6080,8900 Z"/>
 <path fill="rgb(255,211,32)" stroke="rgb(255,211,32)" stroke-linejoin="round" d="M 8236,8959 L 8361,9084 8486,8959 8361,8834 8236,8959 Z"/>
 <path fill="rgb(255,211,32)" stroke="rgb(255,211,32)" stroke-linejoin="round" d="M 10391,9029 L 10516,9154 10641,9029 10516,8904 10391,9029 Z"/>
 <path fill="rgb(255,211,32)" stroke="rgb(255,211,32)" stroke-linejoin="round" d="M 12546,9108 L 12671,9233 12796,9108 12671,8983 12546,9108 Z"/>
 <path fill="rgb(255,211,32)" stroke="rgb(255,211,32)" stroke-linejoin="round" d="M 14701,9290 L 14826,9415 14951,9290 14826,9165 14701,9290 Z"/>
 <path fill="rgb(255,211,32)" stroke="rgb(255,211,32)" stroke-linejoin="round" d="M 16857,9508 L 16982,9633 17107,9508 16982,9383 16857,9508 Z"/>
 <path fill="none" stroke="rgb(87,157,28)" stroke-width="80" stroke-linejoin="round" d="M 1895,4751 L 4050,4385 6205,4517 8361,4440 10516,5116 12671,5490 14826,5994 16982,6204"/>
 <path fill="rgb(87,157,28)" stroke="rgb(87,157,28)" stroke-linejoin="round" d="M 1770,4626 L 1895,4876 2020,4626 1770,4626 Z"/>
 <path fill="rgb(87,157,28)" stroke="rgb(87,157,28)" stroke-linejoin="round" d="M 3925,4260 L 4050,4510 4175,4260 3925,4260 Z"/>
 <path fill="rgb(87,157,28)" stroke="rgb(87,157,28)" stroke-linejoin="round" d="M 6080,4392 L 6205,4642 6330,4392 6080,4392 Z"/>
 <path fill="rgb(87,157,28)" stroke="rgb(87,157,28)" stroke-linejoin="round" d="M 8236,4315 L 8361,4565 8486,4315 8236,4315 Z"/>
 <path fill="rgb(87,157,28)" stroke="rgb(87,157,28)" stroke-linejoin="round" d="M 10391,4991 L 10516,5241 10641,4991 10391,4991 Z"/>
 <path fill="rgb(87,157,28)" stroke="rgb(87,157,28)" stroke-linejoin="round" d="M 12546,5365 L 12671,5615 12796,5365 12546,5365 Z"/>
 <path fill="rgb(87,157,28)" stroke="rgb(87,157,28)" stroke-linejoin="round" d="M 14701,5869 L 14826,6119 14951,5869 14701,5869 Z"/>
 <path fill="rgb(87,157,28)" stroke="rgb(87,157,28)" stroke-linejoin="round" d="M 16857,6079 L 16982,6329 17107,6079 16857,6079 Z"/>
 <path fill="none" stroke="rgb(126,0,33)" stroke-width="80" stroke-linejoin="round" d="M 1895,4214 L 4050,4158 6205,4020 8361,4177 10516,4319 12671,4688 14826,4979 16982,5748"/>
 <path fill="rgb(126,0,33)" stroke="rgb(126,0,33)" stroke-linejoin="round" d="M 1770,4339 L 2020,4339 1895,4089 1770,4339 Z"/>
 <path fill="rgb(126,0,33)" stroke="rgb(126,0,33)" stroke-linejoin="round" d="M 3925,4283 L 4175,4283 4050,4033 3925,4283 Z"/>
 <path fill="rgb(126,0,33)" stroke="rgb(126,0,33)" stroke-linejoin="round" d="M 6080,4145 L 6330,4145 6205,3895 6080,4145 Z"/>
 <path fill="rgb(126,0,33)" stroke="rgb(126,0,33)" stroke-linejoin="round" d="M 8236,4302 L 8486,4302 8361,4052 8236,4302 Z"/>
 <path fill="rgb(126,0,33)" stroke="rgb(126,0,33)" stroke-linejoin="round" d="M 10391,4444 L 10641,4444 10516,4194 10391,4444 Z"/>
 <path fill="rgb(126,0,33)" stroke="rgb(126,0,33)" stroke-linejoin="round" d="M 12546,4813 L 12796,4813 12671,4563 12546,4813 Z"/>
 <path fill="rgb(126,0,33)" stroke="rgb(126,0,33)" stroke-linejoin="round" d="M 14701,5104 L 14951,5104 14826,4854 14701,5104 Z"/>
 <path fill="rgb(126,0,33)" stroke="rgb(126,0,33)" stroke-linejoin="round" d="M 16857,5873 L 17107,5873 16982,5623 16857,5873 Z"/>
 <text class="TextShape"><tspan class="TextParagraph" font-family="Arial, sans-serif" font-size="353px" font-weight="400"><tspan class="TextPosition" x="1802" y="11617"><tspan fill="rgb(0,0,0)" stroke="none">1</tspan></tspan></tspan></text>
 <text class="TextShape"><tspan class="TextParagraph" font-family="Arial, sans-serif" font-size="353px" font-weight="400"><tspan class="TextPosition" x="3957" y="11617"><tspan fill="rgb(0,0,0)" stroke="none">2</tspan></tspan></tspan></text>
 <text class="TextShape"><tspan class="TextParagraph" font-family="Arial, sans-serif" font-size="353px" font-weight="400"><tspan class="TextPosition" x="6112" y="11617"><tspan fill="rgb(0,0,0)" stroke="none">3</tspan></tspan></tspan></text>
 <text class="TextShape"><tspan class="TextParagraph" font-family="Arial, sans-serif" font-size="353px" font-weight="400"><tspan class="TextPosition" x="8268" y="11617"><tspan fill="rgb(0,0,0)" stroke="none">4</tspan></tspan></tspan></text>
 <text class="TextShape"><tspan class="TextParagraph" font-family="Arial, sans-serif" font-size="353px" font-weight="400"><tspan class="TextPosition" x="10423" y="11617"><tspan fill="rgb(0,0,0)" stroke="none">5</tspan></tspan></tspan></text>
 <text class="TextShape"><tspan class="TextParagraph" font-family="Arial, sans-serif" font-size="353px" font-weight="400"><tspan class="TextPosition" x="12579" y="11617"><tspan fill="rgb(0,0,0)" stroke="none">6</tspan></tspan></tspan></text>
 <text class="TextShape"><tspan class="TextParagraph" font-family="Arial, sans-serif" font-size="353px" font-weight="400"><tspan class="TextPosition" x="14734" y="11617"><tspan fill="rgb(0,0,0)" stroke="none">7</tspan></tspan></tspan></text>
 <text class="TextShape"><tspan class="TextParagraph" font-family="Arial, sans-serif" font-size="353px" font-weight="400"><tspan class="TextPosition" x="16890" y="11617"><tspan fill="rgb(0,0,0)" stroke="none">8</tspan></tspan></tspan></text>
 <text class="TextShape"><tspan class="TextParagraph" font-family="Arial, sans-serif" font-size="353px" font-weight="400"><tspan class="TextPosition" x="1460" y="11170"><tspan fill="rgb(0,0,0)" stroke="none">0</tspan></tspan></tspan></text>
 <text class="TextShape"><tspan class="TextParagraph" font-family="Arial, sans-serif" font-size="353px" font-weight="400"><tspan class="TextPosition" x="1460" y="10148"><tspan fill="rgb(0,0,0)" stroke="none">1</tspan></tspan></tspan></text>
 <text class="TextShape"><tspan class="TextParagraph" font-family="Arial, sans-serif" font-size="353px" font-weight="400"><tspan class="TextPosition" x="1460" y="9127"><tspan fill="rgb(0,0,0)" stroke="none">2</tspan></tspan></tspan></text>
 <text class="TextShape"><tspan class="TextParagraph" font-family="Arial, sans-serif" font-size="353px" font-weight="400"><tspan class="TextPosition" x="1460" y="8106"><tspan fill="rgb(0,0,0)" stroke="none">3</tspan></tspan></tspan></text>
 <text class="TextShape"><tspan class="TextParagraph" font-family="Arial, sans-serif" font-size="353px" font-weight="400"><tspan class="TextPosition" x="1460" y="7085"><tspan fill="rgb(0,0,0)" stroke="none">4</tspan></tspan></tspan></text>
 <text class="TextShape"><tspan class="TextParagraph" font-family="Arial, sans-serif" font-size="353px" font-weight="400"><tspan class="TextPosition" x="1460" y="6063"><tspan fill="rgb(0,0,0)" stroke="none">5</tspan></tspan></tspan></text>
 <text class="TextShape"><tspan class="TextParagraph" font-family="Arial, sans-serif" font-size="353px" font-weight="400"><tspan class="TextPosition" x="1460" y="5042"><tspan fill="rgb(0,0,0)" stroke="none">6</tspan></tspan></tspan></text>
 <text class="TextShape"><tspan class="TextParagraph" font-family="Arial, sans-serif" font-size="353px" font-weight="400"><tspan class="TextPosition" x="1460" y="4021"><tspan fill="rgb(0,0,0)" stroke="none">7</tspan></tspan></tspan></text>
 <text class="TextShape"><tspan class="TextParagraph" font-family="Arial, sans-serif" font-size="353px" font-weight="400"><tspan class="TextPosition" x="1460" y="3000"><tspan fill="rgb(0,0,0)" stroke="none">8</tspan></tspan></tspan></text>
 <text class="TextShape"><tspan class="TextParagraph" font-family="Arial, sans-serif" font-size="459px" font-weight="400"><tspan class="TextPosition" x="9235" y="955"><tspan fill="rgb(0,0,0)" stroke="none">Synthesys Speedup</tspan></tspan></tspan></text>
 <text class="TextShape"><tspan class="TextParagraph" font-family="Arial, sans-serif" font-size="388px" font-weight="400"><tspan class="TextPosition" x="9010" y="1943"><tspan fill="rgb(0,0,0)" stroke="none">function of unrolling factor</tspan></tspan></tspan></text>
 <path fill="none" stroke="rgb(255,66,14)" stroke-width="80" stroke-linejoin="round" d="M 18088,5720 L 18888,5720"/>
 <path fill="rgb(255,66,14)" stroke="rgb(255,66,14)" stroke-linejoin="round" d="M 18382,5615 L 18382,5825 18593,5825 18593,5615 18382,5615 Z"/>
 <path fill="none" stroke="rgb(255,211,32)" stroke-width="80" stroke-linejoin="round" d="M 18088,6218 L 18888,6218"/>
 <path fill="rgb(255,211,32)" stroke="rgb(255,211,32)" stroke-linejoin="round" d="M 18382,6218 L 18488,6323 18593,6218 18488,6113 18382,6218 Z"/>
 <path fill="none" stroke="rgb(87,157,28)" stroke-width="80" stroke-linejoin="round" d="M 18088,6715 L 18888,6715"/>
 <path fill="rgb(87,157,28)" stroke="rgb(87,157,28)" stroke-linejoin="round" d="M 18382,6610 L 18488,6820 18593,6610 18382,6610 Z"/>
 <path fill="none" stroke="rgb(126,0,33)" stroke-width="80" stroke-linejoin="round" d="M 18088,7213 L 18888,7213"/>
 <path fill="rgb(126,0,33)" stroke="rgb(126,0,33)" stroke-linejoin="round" d="M 18382,7318 L 18593,7318 18488,7108 18382,7318 Z"/>
 <text class="TextShape"><tspan class="TextParagraph" font-family="Arial, sans-serif" font-size="353px" font-weight="400"><tspan class="TextPosition" x="18988" y="5840"><tspan fill="rgb(0,0,0)" stroke="none">C</tspan></tspan></tspan></text>
 <text class="TextShape"><tspan class="TextParagraph" font-family="Arial, sans-serif" font-size="353px" font-weight="400"><tspan class="TextPosition" x="18988" y="6338"><tspan fill="rgb(0,0,0)" stroke="none">FORTRAN</tspan></tspan></tspan></text>
 <text class="TextShape"><tspan class="TextParagraph" font-family="Arial, sans-serif" font-size="353px" font-weight="400"><tspan class="TextPosition" x="18988" y="6835"><tspan fill="rgb(0,0,0)" stroke="none">C OpenMP</tspan></tspan></tspan></text>
 <text class="TextShape"><tspan class="TextParagraph" font-family="Arial, sans-serif" font-size="353px" font-weight="400"><tspan class="TextPosition" x="18988" y="7333"><tspan fill="rgb(0,0,0)" stroke="none">FORTRAN OpenMP</tspan></tspan></tspan></text>
 <text class="TextShape"><tspan class="TextParagraph" font-family="Arial, sans-serif" font-size="318px" font-weight="400"><tspan class="TextPosition" x="8858" y="12342"><tspan fill="rgb(0,0,0)" stroke="none">unroll</tspan></tspan></tspan></text>
 <text class="TextShape"><tspan class="TextParagraph" font-family="Arial, sans-serif" font-size="318px" font-weight="400"><tspan class="TextPosition" x="837" y="7824" transform="translate(837,7824) rotate(-90) translate(-837,-7824)"><tspan fill="rgb(0,0,0)" stroke="none">speedup</tspan></tspan></tspan></text>
</svg>